<svg xmlns="http://www.w3.org/2000/svg" version="1.1" xmlns:xlink="http://www.w3.org/1999/xlink" xmlns:svgjs="http://svgjs.dev/svgjs" viewBox="0 0 600 600" opacity="1"><path d="M387.0251091652028 416.6077581544773C357.69440034358826 415.42665413022604 108.67867870459085 217.7888596355971 120.0960014991872 176.8439794679539C131.51332429378354 135.89909930031067 447.6550301246755 121.13532824318176 455.52904593278095 170.93847714861795C463.4030617408864 220.74162605405414 193.91489493180438 473.49751848976376 167.34009634782 475.6628729005711C140.76529776383563 477.8282273113784 259.46608562597754 193.77312273781067 296.0802544288747 183.9306036134617C332.69442323177185 174.08808448911273 416.3558179868174 417.7888621787286 387.0251091652028 416.6077581544773C357.69440034358826 415.42665413022604 108.67867870459085 217.7888596355971 120.0960014991872 176.8439794679539 " fill="none" transform="matrix(1.09974375,0,0,1.09974375,-16.403757736873615,-38.22696558351515)" stroke-width="5" stroke="hsl(340, 45%, 30%)" stroke-opacity="0.05"></path><defs><linearGradient id="SvgjsLinearGradient1003"><stop stop-color="hsl(70, 69%, 60%)" offset="0"></stop><stop stop-color="hsl(70, 69%, 80%)" offset="1"></stop></linearGradient></defs><path d="M332.97646753256595 355.17390987218437C288.9804043001441 353.4022538358074 48.92137567465579 176.82745143712603 66.04735986655032 115.41013118566119C83.17334405844485 53.99281093419634 389.66938058798587 34.79990550817095 401.4804043001441 109.50462886632525C413.2914280123023 184.20935222447955 153.1536525911597 410.9809930020672 113.29145471518314 414.2290246182781C73.42925683920657 417.47705623448905 187.11035959189212 137.26053401769244 242.03161279623782 122.496755331169C296.9528660005835 107.73297664464556 376.9725307649878 356.9455659085613 332.97646753256595 355.17390987218437C288.9804043001441 353.4022538358074 48.92137567465579 176.82745143712603 66.04735986655032 115.41013118566119 " fill-opacity="0.07" fill="none" opacity="1" stroke-opacity="0.45" stroke-width="3" stroke="hsl(40, 98%, 50%)" transform="matrix(1.212467484375,0,0,1.212467484375,14.257842051766147,17.76476802339471)"></path></svg>